<svg xmlns="http://www.w3.org/2000/svg" width="800" height="800" version="1.0" viewBox="0 0 600 600"><path d="M156.1 76.6c-17.7 4.8-33.2 20.5-37 37.7-.8 3.2-1.1 61.5-1.1 186.7 0 181.9 0 182 2.1 188.2 5.6 16.7 18.6 29.2 35.8 34.2 4.9 1.4 20.1 1.6 144.1 1.6 153.1 0 142.6.4 155.5-6.3 6.9-3.7 15.8-12.2 19.7-18.8 1.4-2.4 3.6-7.3 4.7-10.7 2.1-6.2 2.1-6.3 2.1-188.2 0-122.3-.3-183.5-1-186.6-3.6-15.7-16.2-29.9-32.8-36.6l-5.7-2.3-140.5-.2c-120.4-.2-141.3 0-145.9 1.3M355 110.5V125H245V96h110zm-88.7 85.6c3.8 1.9 5.7 5.2 5.7 9.7 0 4.2-.3 4.7-16.1 21-30 31.1-29 30.2-34.3 30.2-4.6 0-4.8-.1-14.5-10.3-18.5-19.3-20.1-21.3-20.1-25.5 0-4.6 2.2-8 6.4-9.7 5.3-2.3 7.8-.9 18.5 10l10.2 10.3 16.2-17c8.9-9.3 17.3-17.6 18.7-18.3 3.1-1.7 6.4-1.9 9.3-.4m141 30c3.7 1.9 5.7 5.2 5.7 9.4s-2 7.5-5.7 9.4c-1.5.8-18.7 1.1-57.5 1.1-52.8 0-55.4-.1-58.4-1.9-4.6-2.8-6.1-8-3.7-12.8 1-2.1 2.9-4.3 4.3-5 3.4-1.7 112-1.9 115.3-.2m-138.2 55.8c2.3 2.3 2.9 3.8 2.9 7 0 3.7-.7 4.9-7.9 12.9-4.3 4.8-14.8 15.6-23.3 23.9-13.5 13.4-15.8 15.3-18.7 15.3-1.8 0-4.1-.4-5.1-1-1-.5-8.2-7.7-15.9-16-13.6-14.6-14.1-15.2-14.1-19.4 0-7.1 6-11.8 12.8-10.1 1.6.4 6.4 4.6 12.3 10.7l9.6 10.1 17.9-18.1c17.8-18.1 17.9-18.2 22.2-18.2 3.5 0 5 .6 7.3 2.9m137.3 27.5c9.5 3.9 8.7 16.7-1.2 19.7-2.6.7-20.1 1-57.9.7l-54.2-.3-3-2.9c-6.6-6.3-4.2-14.9 4.9-17.9.8-.3 25.5-.6 54.8-.6 43.4-.1 53.9.2 56.6 1.3m-137.2 56.2c2.2 2.2 2.8 3.6 2.8 7.1 0 4.4-.2 4.6-22.1 27.3-23.3 24.2-25.9 26.1-31.5 24-2.6-1-16.8-15.2-27.2-27.3-3.4-3.9-4.2-5.6-4.2-8.8 0-5.8 4.2-9.9 10.2-9.9 4.1 0 4.7.4 14.5 10.4l10.3 10.5 16.2-17c9-9.4 17.4-17.7 18.8-18.5 3.5-2 8.7-1 12.2 2.2m138.1 27.5c5.1 2.6 7.4 9.9 4.7 15-2.7 4.9-3.1 4.9-62.2 4.9-42 0-55.9-.3-57.8-1.3-1.4-.7-3.3-2.9-4.3-5-2.4-4.8-.9-10 3.7-12.8 3-1.8 5.6-1.9 58.4-1.9 38.8 0 56 .3 57.5 1.1"/></svg>